<?xml version="1.0" encoding="UTF-8" standalone="no"?><!-- Generator: Gravit.io --><svg xmlns="http://www.w3.org/2000/svg" xmlns:xlink="http://www.w3.org/1999/xlink" style="isolation:isolate" viewBox="0 0 1038.23 693.31" width="1038.23pt" height="693.31pt"><defs><clipPath id="_clipPath_fKntxWAqCjvoLmTL8tnMoqtVX2CMRRKZ"><rect width="1038.23" height="693.31"/></clipPath></defs><g clip-path="url(#_clipPath_fKntxWAqCjvoLmTL8tnMoqtVX2CMRRKZ)"><path d=" M 615.24 111.4 C 550.52 109.15 488.88 88.26 430.01 65.4 C 371.14 42.54 312.85 17.21 249.68 5.1 C 209.05 -2.69 162.59 -3.79 129.85 17.99 C 98.35 38.99 88.17 75.14 82.69 108.71 C 78.58 133.98 76.15 160.56 87.44 184.21 C 95.27 200.63 109.18 214.43 118.8 230.16 C 152.26 284.88 128.61 352.36 92.34 405.79 C 75.34 430.85 55.6 454.79 42.47 481.45 C 29.34 508.11 23.27 538.7 34.75 565.92 C 46.14 592.92 73.27 613.16 102.65 627.41 C 162.34 656.35 232.65 664.64 301.27 669.33 C 453.09 679.72 605.73 675.22 757.95 670.72 C 814.29 669.05 870.87 667.36 926.29 658.65 C 957.07 653.81 988.85 646.13 1011.19 627.65 C 1039.55 604.12 1046.58 564.27 1027.58 534.77 C 995.7 485.28 907.58 472.98 885.27 419.87 C 873 390.64 885.6 358.07 903.42 330.96 C 941.66 272.79 1005.75 221.77 1009.13 155.28 C 1011.45 109.62 980.64 63.89 933 42.28 C 883.06 19.63 813.82 22.48 777 59.97 C 739.04 98.53 672.38 113.38 615.24 111.4 Z " fill="rgb(255,255,255)"/><g><rect x="374.3" y="365.291" width="4.043" height="46.214" transform="matrix(1,0,0,1,0,0)" fill="rgb(83,84,97)"/><rect x="374.3" y="427.377" width="4.043" height="26.142" transform="matrix(1,0,0,1,0,0)" fill="rgb(83,84,97)"/><path d="M 401.646 320.01 L 534.682 320.01 C 548.181 320.01 559.14 330.969 559.14 344.468 L 559.14 614.852 C 559.14 628.351 548.181 639.31 534.682 639.31 L 401.646 639.31 C 388.147 639.31 377.188 628.351 377.188 614.852 L 377.188 344.468 C 377.188 330.969 388.147 320.01 401.646 320.01 Z" style="stroke:none;fill:#535461;stroke-miterlimit:10;"/><path d="M 401.646 334.948 L 534.682 334.948 C 548.181 334.948 559.14 345.907 559.14 359.406 L 559.14 601.315 C 559.14 614.813 548.181 625.772 534.682 625.772 L 401.646 625.772 C 388.147 625.772 377.188 614.813 377.188 601.315 L 377.188 359.406 C 377.188 345.907 388.147 334.948 401.646 334.948 Z" style="stroke:none;fill:#6C63FF;stroke-miterlimit:10;"/><path d="M 455.252 327.012 L 481.654 327.012 C 482.657 327.012 483.471 327.744 483.471 328.646 L 483.471 328.646 C 483.471 329.548 482.657 330.28 481.654 330.28 L 455.252 330.28 C 454.249 330.28 453.435 329.548 453.435 328.646 L 453.435 328.646 C 453.435 327.744 454.249 327.012 455.252 327.012 Z" style="stroke:none;fill:#EAEAF3;stroke-miterlimit:10;"/><ellipse vector-effect="non-scaling-stroke" cx="493.8683699398042" cy="328.8794404093425" rx="2.8881248188018844" ry="2.334064389948253" fill="rgb(234,234,243)"/><path d=" M 430.252 480.945 L 430.252 508.133 C 430.275 509.855 429.461 511.512 427.992 512.734 C 426.523 513.957 424.522 514.641 422.436 514.635 C 418.089 514.635 413.867 511.727 413.867 508.133 L 413.867 480.945 C 413.867 477.399 418.075 474.491 422.436 474.491 C 426.746 474.505 430.235 477.386 430.252 480.945 L 430.252 480.945 Z  M 433.324 517.794 C 433.319 519.637 434.204 521.406 435.782 522.709 C 437.361 524.013 439.503 524.743 441.735 524.739 L 447.391 524.739 L 447.476 539.082 C 447.476 547.741 463.167 547.674 463.167 539.082 L 463.167 524.743 L 473.739 524.743 L 473.739 539.086 C 473.739 547.7 489.524 547.722 489.524 539.086 L 489.524 524.743 L 495.265 524.743 C 497.489 524.737 499.619 524.002 501.186 522.699 C 502.753 521.397 503.63 519.633 503.623 517.797 L 503.623 475.675 L 433.324 475.675 L 433.324 517.794 Z  M 503.812 473.411 L 433.004 473.411 C 433.004 463.355 440.278 454.633 451.08 450.082 L 445.668 441.795 C 444.874 440.644 446.89 439.933 447.571 440.905 L 453.087 449.262 C 462.899 445.718 474.057 445.718 483.868 449.262 L 489.353 440.931 C 490.065 439.922 492.059 440.674 491.256 441.821 L 485.844 450.082 C 496.537 454.633 503.812 463.366 503.812 473.411 Z  M 455.292 460.376 C 455.292 459.722 454.978 459.095 454.418 458.632 C 453.858 458.17 453.099 457.91 452.307 457.91 C 450.704 457.962 449.437 459.049 449.437 460.374 C 449.437 461.698 450.704 462.786 452.307 462.837 C 453.95 462.837 455.285 461.74 455.292 460.383 L 455.292 460.376 Z  M 487.526 460.376 C 487.501 459.035 486.165 457.965 484.542 457.985 C 482.919 458.005 481.622 459.107 481.646 460.448 C 481.669 461.788 483.003 462.859 484.626 462.841 C 486.242 462.811 487.531 461.718 487.526 460.383 L 487.526 460.376 Z  M 514.469 474.483 C 512.394 474.478 510.403 475.157 508.936 476.368 C 507.469 477.58 506.647 479.224 506.653 480.938 L 506.653 508.125 C 506.645 509.844 507.464 511.494 508.93 512.714 C 510.396 513.933 512.388 514.622 514.469 514.628 C 518.849 514.628 523.038 511.719 523.038 508.125 L 523.038 480.938 C 523.025 477.332 518.817 474.491 514.469 474.491 L 514.469 474.483 Z " fill="rgb(255,255,255)"/></g><g><path d=" M 684.468 135.736 L 903.42 135.736 L 903.42 357.392 L 684.468 357.392 L 684.468 135.736 Z " fill="rgb(247,223,30)"/><path d=" M 705.286 320.103 L 723.904 309.591 C 727.5 315.533 730.763 320.56 738.602 320.56 C 746.118 320.56 750.851 317.818 750.851 307.159 L 750.851 234.643 L 773.712 234.643 L 773.712 307.452 C 773.712 329.537 759.846 339.592 739.582 339.592 C 721.297 339.592 710.684 330.753 705.295 320.095 M 786.128 317.809 L 804.736 307.754 C 809.636 315.222 816.005 320.69 827.274 320.69 C 836.75 320.69 842.786 316.274 842.786 310.177 C 842.786 302.865 836.583 300.278 826.146 296.009 L 820.433 293.724 C 803.941 287.178 792.996 278.951 792.996 261.583 C 792.996 245.587 806.058 233.402 826.47 233.402 C 841.002 233.402 851.43 238.127 858.964 250.459 L 841.168 261.126 C 837.249 254.572 833.006 251.985 826.47 251.985 C 819.777 251.985 815.525 255.944 815.525 261.126 C 815.525 267.525 819.768 270.112 829.567 274.062 L 835.28 276.347 C 854.693 284.108 865.657 292.033 865.657 309.858 C 865.657 329.054 849.488 339.567 827.755 339.567 C 806.493 339.567 792.811 330.081 786.155 317.783" fill="rgb(0,0,0)"/></g><g><path d=" M 643.33 671.328 L 560.39 648.328 L 541.91 441.028 L 745 441.028 L 726.5 648.298 L 643.33 671.328 Z " fill="rgb(38,77,228)"/><path d=" M 710.66 635.108 L 726.47 457.988 L 643.47 457.988 L 643.47 653.698 L 710.66 635.108 Z " fill="rgb(41,101,241)"/><path d=" M 584.33 534.838 L 586.61 560.258 L 643.51 560.258 L 643.51 534.838 L 584.33 534.838 Z  M 579.75 483.378 L 582.06 508.798 L 643.5 508.798 L 643.5 483.378 L 579.7 483.378 L 579.75 483.378 Z  M 643.5 600.868 L 643.39 600.868 L 615.07 593.218 L 613.26 572.938 L 587.69 572.938 L 591.25 612.858 L 643.33 627.348 L 643.45 627.348 L 643.5 600.868 Z " fill="rgb(235,235,235)"/><path d=" M 589.71 384.668 L 620.5 384.668 L 620.5 397.548 L 602.58 397.548 L 602.58 410.428 L 620.5 410.428 L 620.5 423.308 L 589.71 423.308 L 589.71 384.668 Z  M 626.71 384.668 L 657.5 384.668 L 657.5 395.868 L 639.54 395.868 L 639.54 398.108 L 657.46 398.108 L 657.46 423.868 L 626.66 423.868 L 626.66 412.108 L 644.58 412.108 L 644.58 409.868 L 626.66 409.868 L 626.66 384.668 L 626.71 384.668 Z  M 663.71 384.668 L 694.5 384.668 L 694.5 395.868 L 676.49 395.868 L 676.49 398.108 L 694.41 398.108 L 694.41 423.868 L 663.61 423.868 L 663.61 412.108 L 681.53 412.108 L 681.53 409.868 L 663.61 409.868 L 663.61 384.668 L 663.71 384.668 Z " fill="rgb(0,0,0)"/><path d=" M 702.47 534.838 L 707.06 483.378 L 643.33 483.378 L 643.33 508.798 L 679.16 508.798 L 676.85 534.798 L 643.33 534.798 L 643.33 560.218 L 674.64 560.218 L 671.64 593.218 L 643.33 600.888 L 643.33 627.338 L 695.45 612.888 L 695.83 608.588 L 701.83 541.648 L 702.45 534.818 L 702.47 534.838 Z " fill="rgb(255,255,255)"/></g><g><path d=" M 972.1 440.972 L 953.596 648.256 L 870.423 671.328 L 787.48 648.256 L 769 440.972 L 972.1 440.972 Z " fill="rgb(228,77,38)"/><path d=" M 870.544 653.696 L 937.75 635.069 L 953.535 457.924 L 870.544 457.924 L 870.544 653.696 Z " fill="rgb(241,101,41)"/><path d=" M 834.579 508.78 L 870.544 508.78 L 870.544 483.352 L 806.798 483.352 L 807.405 490.177 L 813.658 560.243 L 870.556 560.243 L 870.556 534.815 L 836.91 534.815 L 834.579 508.78 Z  M 840.359 572.956 L 814.861 572.956 L 818.418 612.883 L 870.435 627.382 L 870.556 627.382 L 870.556 600.849 L 870.447 600.849 L 842.132 593.199 L 840.359 572.956 Z " fill="rgb(235,235,235)"/><path d=" M 787.905 384.628 L 800.824 384.628 L 800.824 397.391 L 812.639 397.391 L 812.639 384.628 L 825.558 384.628 L 825.558 423.292 L 812.639 423.292 L 812.639 410.347 L 800.824 410.347 L 800.824 423.292 L 787.905 423.292 L 787.905 384.628 Z  M 842.544 397.451 L 831.167 397.451 L 831.167 384.628 L 866.841 384.628 L 866.841 397.451 L 855.464 397.451 L 855.464 423.292 L 842.557 423.292 L 842.557 397.451 L 842.557 397.451 L 842.544 397.451 Z  M 872.511 384.628 L 885.989 384.628 L 894.282 398.216 L 902.562 384.628 L 916.04 384.628 L 916.04 423.292 L 903.17 423.292 L 903.17 404.13 L 894.282 417.876 L 894.063 417.876 L 885.163 404.13 L 885.163 423.292 L 872.511 423.292 L 872.511 384.628 Z  M 922.463 384.628 L 935.382 384.628 L 935.382 410.505 L 953.596 410.505 L 953.596 423.28 L 922.5 423.28 L 922.5 384.628 L 922.463 384.628 Z " fill="rgb(0,0,0)"/><path d=" M 870.459 560.243 L 901.761 560.243 L 898.811 593.223 L 870.459 600.874 L 870.459 627.382 L 922.585 612.932 L 922.961 608.633 L 928.935 541.688 L 929.554 534.863 L 870.459 534.863 L 870.459 560.291 L 870.459 560.243 Z  M 870.459 508.719 L 870.459 508.78 L 931.873 508.78 L 932.383 503.06 L 933.598 490.164 L 934.205 483.34 L 870.459 483.34 L 870.459 508.707 L 870.459 508.719 Z " fill="rgb(255,255,255)"/></g><linearGradient id="_lgradient_0" x1="0.5002281960998043" y1="1.000063385587517" x2="0.5002281960998044" y2="-0.00009160240258720975" gradientTransform="matrix(423.114,0,0,511.121,28.417,181.507)" gradientUnits="userSpaceOnUse"><stop offset="0%" stop-opacity="0.25" style="stop-color:rgb(128,128,128)"/><stop offset="54%" stop-opacity="0.12" style="stop-color:rgb(128,128,128)"/><stop offset="100%" stop-opacity="0.1" style="stop-color:rgb(128,128,128)"/></linearGradient><path d=" M 448.73 651.49 C 447.73 647.87 446.73 644.21 444.73 641.06 C 442.876 638.389 440.673 635.978 438.18 633.89 C 430.93 627.31 422.03 620.63 412.42 622.29 C 409.448 622.947 406.576 623.997 403.88 625.41 C 402.48 626.06 401.07 626.71 399.63 627.26 C 395.576 628.955 391.096 629.346 386.81 628.38 C 384.61 627.79 382.56 626.73 380.39 626.07 C 379.36 625.76 378.306 625.533 377.24 625.39 C 379.337 624.452 381.371 623.379 383.33 622.18 C 394.11 615.58 402.71 603.65 401.51 590.89 C 401.1 586.6 399.63 582.49 398.17 578.44 L 394.33 567.82 C 392.67 563.22 390.95 558.53 387.92 554.71 C 384.55 550.45 379.75 547.56 374.79 545.41 C 364.14 540.78 352.5 539.15 341.01 537.57 L 340.21 537.46 L 340.21 413.33 C 340.21 408.912 336.628 405.33 332.21 405.33 L 317.11 405.33 Q 316.11 399.21 315.11 393.11 C 313.21 381.5 311.24 369.68 305.89 359.23 C 302.39 352.39 296.82 345.86 289.31 344.52 C 287.834 344.387 286.384 344.05 285 343.52 C 282.8 342.44 281.6 340.04 279.91 338.27 C 275.55 333.7 268.46 333.63 262.62 331.27 C 257.46 329.22 253.24 325.36 248.54 322.39 C 243.84 319.42 238 317.31 232.8 319.24 C 232.8 319.62 232.73 320 232.69 320.37 L 229.35 318.83 C 225.75 317.16 222.08 315.45 219.19 312.71 C 215.48 309.21 213.5 304.57 211.96 299.64 C 211.8 299.13 211.65 298.64 211.49 298.09 C 217.882 291.569 222.209 283.308 223.93 274.34 L 224.74 276.97 C 224.922 277.561 225.136 278.142 225.38 278.71 C 225.794 279.809 226.482 280.783 227.38 281.54 C 227.636 281.741 227.919 281.906 228.22 282.03 C 228.496 282.14 228.785 282.213 229.08 282.25 C 229.495 282.301 229.917 282.271 230.32 282.16 C 231.69 281.736 232.793 280.713 233.32 279.38 C 233.479 278.987 233.597 278.578 233.67 278.16 C 233.709 277.908 233.732 277.655 233.74 277.4 C 233.74 277.32 233.74 277.24 233.74 277.16 C 233.74 277.08 233.74 276.81 233.74 276.64 C 233.74 276.47 233.74 276.46 233.74 276.36 C 233.74 276.26 233.74 276.03 233.69 275.86 L 233.69 275.6 C 233.69 275.4 233.63 275.2 233.59 275.01 C 233.55 274.82 233.59 274.9 233.59 274.85 C 233.54 274.6 233.48 274.34 233.43 274.09 C 233.43 274.03 233.43 273.96 233.43 273.9 C 233.43 273.84 233.34 273.49 233.29 273.28 C 233.24 273.07 233.22 273.01 233.19 272.87 L 233.19 272.81 L 233.19 272.81 C 233.09 272.41 233 272.02 232.91 271.62 C 232.183 268.149 231.998 264.587 232.36 261.06 C 232.959 255.884 233.914 250.755 235.22 245.71 L 235.43 244.8 C 235.51 244.45 235.59 244.1 235.66 243.74 C 235.82 243.02 235.98 242.3 236.13 241.57 L 236.13 241.57 L 236.49 239.73 L 236.76 238.09 L 236.76 237.88 C 237.321 234.164 237.439 230.394 237.11 226.65 L 237.11 226.65 C 236.65 221.42 235.03 216.47 231.48 212.53 C 228.97 209.74 225.66 207.68 223.33 204.75 C 221.15 202.01 219.92 198.63 217.66 195.94 C 211.42 188.49 195.4 182.75 185.57 181.75 C 174.31 180.61 156.12 183.49 147.04 190.14 C 143.68 192.59 141.38 196.14 139.04 199.5 C 134.74 205.75 129.86 211.99 122.97 215.5 C 120.37 216.82 117.39 217.82 115.66 220.12 C 114.631 221.679 113.964 223.449 113.71 225.3 C 112.385 231.811 111.695 238.436 111.65 245.08 L 111.65 245.08 C 111.65 245.91 111.65 246.74 111.65 247.58 C 111.671 250.071 112.201 252.532 113.21 254.81 C 113.37 255.15 113.55 255.48 113.74 255.81 L 113.86 256.02 C 115.07 257.749 116.14 259.571 117.06 261.47 C 117.289 262.002 117.454 262.559 117.55 263.13 C 117.721 264.595 117.626 266.079 117.27 267.51 L 117.27 267.51 C 117.27 267.73 117.18 267.95 117.14 268.17 L 117.05 268.6 C 117.05 268.75 117.05 268.9 116.97 269.04 C 116.89 269.47 116.82 269.9 116.76 270.32 L 116.76 270.32 C 116.608 271.477 116.683 272.652 116.98 273.78 C 117.257 275.051 118.065 276.143 119.2 276.78 C 119.77 277.053 120.376 277.242 121 277.34 C 121.63 277.45 122.27 277.52 122.89 277.66 C 123.687 277.842 124.457 278.128 125.18 278.51 C 125.872 278.841 126.521 279.258 127.11 279.75 C 127.402 280.015 127.679 280.295 127.94 280.59 C 128.468 281.195 128.943 281.844 129.36 282.53 Q 129.68 283.06 129.96 283.61 C 130.677 285.057 131.249 286.571 131.67 288.13 C 131.93 289.06 132.15 290 132.34 290.94 C 132.43 291.36 132.51 291.78 132.58 292.19 C 132.65 292.6 132.72 293.02 132.78 293.43 L 132.78 293.43 C 133.053 293.414 133.322 293.361 133.58 293.27 C 135.05 292.74 135.87 291.03 136.33 289.37 C 136.41 289.09 136.48 288.82 136.54 288.55 C 136.77 287.55 137.01 286.45 137.24 285.4 C 141.182 293.771 147.538 300.771 155.49 305.5 C 155.77 306.33 156.04 307.15 156.28 307.99 C 157.59 312.52 158.22 317.26 155.95 321.22 C 154.33 324.03 151.61 325.76 148.57 326.96 C 148.132 326.376 147.568 325.897 146.92 325.56 C 144.29 324.24 141.13 325.84 138.92 327.81 C 134.92 331.43 131.66 336.62 126.4 337.81 C 124.5 338.25 122.4 338.16 120.82 339.32 C 119.775 340.303 118.9 341.452 118.23 342.72 C 115.911 346.051 112.056 347.973 108 347.82 C 106.17 347.73 104 347.31 102.75 348.65 C 101.82 349.65 101.75 351.23 100.75 352.18 C 99.41 353.5 97.21 352.86 95.34 352.78 C 91.78 352.63 88.47 354.93 86.44 357.88 C 84.41 360.83 83.44 364.36 82.44 367.88 L 82.44 367.94 C 82.183 368.127 81.94 368.331 81.71 368.55 C 80.74 369.583 79.989 370.8 79.5 372.13 C 71.413 390.542 66.64 410.238 65.4 430.31 C 65.42 431.288 65.2 432.256 64.76 433.13 C 64.313 433.701 63.821 434.236 63.29 434.73 C 62.33 435.905 61.887 437.419 62.062 438.927 C 62.238 440.434 63.016 441.806 64.22 442.73 C 64.508 442.208 64.868 441.73 65.29 441.31 C 65.18 441.77 65.08 442.22 65.01 442.63 C 64.608 445.547 64.571 448.503 64.9 451.43 Q 66.32 472.27 67.77 493.08 C 68.04 497.01 68.31 500.93 68.67 504.85 Q 69.72 516.23 71.67 527.52 C 71.73 527.86 71.8 528.21 71.89 528.52 C 63.74 531.11 56.49 535.79 53.44 543.6 C 52.38 546.3 51.9 549.24 50.6 551.83 C 49.17 554.67 46.82 556.94 45.26 559.72 C 42.57 564.5 42.45 570.36 43.43 575.72 C 45.32 586.17 50.97 595.51 58.43 603.11 C 58.1 603.11 57.76 603.11 57.43 603.11 C 54.993 603.38 52.653 604.219 50.6 605.56 C 34.82 614.78 25.8 634.56 29.09 652.62 C 29.74 656.15 30.87 659.73 33.23 662.42 C 35.192 664.558 37.714 666.104 40.51 666.88 C 42.259 667.406 44.059 667.741 45.88 667.88 C 58.18 668.88 70.09 663.18 82.42 662.7 C 86.505 662.635 90.589 662.825 94.65 663.27 Q 103.56 664.01 112.5 664.21 C 122.19 664.44 127.64 661.86 133.82 654.62 C 135.339 652.819 136.607 650.821 137.59 648.68 C 142.85 648.38 148.66 647.92 152.86 647.58 L 152.92 648.16 C 153.15 650.16 153.5 652.46 155.1 653.72 C 156 654.341 157.023 654.76 158.1 654.95 C 168.2 657.43 178.42 659.95 188.82 659.95 C 193.701 659.851 198.572 659.478 203.41 658.83 L 221.68 656.72 C 227.004 657.395 232.258 658.539 237.38 660.14 C 242.66 661.93 247.59 664.59 252.75 666.7 C 264.75 671.56 277.65 673.3 290.43 675 C 292.61 675.29 295.11 675.49 296.72 674 C 298.8 672 298.11 668.66 297.52 665.86 C 297.28 664.71 297.1 663.56 296.96 662.4 C 305.584 664.673 314.022 667.602 322.2 671.16 L 323.63 671.79 C 324.05 673.97 326.06 675.71 327.99 678.06 C 328.624 679.052 329.365 679.971 330.2 680.8 C 331.154 681.42 332.239 681.81 333.37 681.94 C 346.861 684.454 360.637 685.076 374.3 683.79 C 377.096 683.409 379.924 683.312 382.74 683.5 C 384.809 683.782 386.85 684.24 388.84 684.87 L 400.41 688.19 C 408.94 690.63 417.67 693.1 426.52 692.55 C 428.314 692.437 430.097 692.18 431.85 691.78 C 438.85 690.16 445.37 686.25 448.73 679.96 C 453.48 671.41 451.29 660.89 448.73 651.49 Z " fill="url(#_lgradient_0)"/><ellipse vector-effect="non-scaling-stroke" cx="214.07" cy="577.16" rx="143" ry="40" fill="rgb(70,67,83)"/><g opacity="0.1"><path d=" M 212.24 304.03 C 197.729 319.138 174.843 322.534 156.57 312.29 C 156.2 311.02 155.77 309.76 155.34 308.55 C 154.34 305.65 150.89 300.14 153.34 297.66 C 154.87 296.09 161.28 295.29 163.49 294.27 C 170.3 291.13 176.58 286.59 184.06 285.1 C 190.53 283.81 197.21 285.02 203.67 286.36 C 204.527 286.485 205.35 286.78 206.09 287.23 C 206.934 287.941 207.558 288.878 207.89 289.93 C 209.68 294.41 210.76 299.36 212.24 304.03 Z " fill="rgb(0,0,0)"/></g><path d=" M 330.79 540.01 C 334.12 538.74 337.79 539.2 341.36 539.68 C 352.85 541.25 364.51 542.86 375.16 547.45 C 380.16 549.59 384.92 552.45 388.3 556.66 C 391.3 560.45 393.05 565.09 394.71 569.66 L 398.55 580.18 C 400.01 584.18 401.49 588.26 401.9 592.51 C 403.1 605.1 394.49 616.97 383.66 623.51 C 372.83 630.05 360.08 632.38 347.66 634.82 C 335.24 637.26 322.77 639.96 310.4 642.82 C 304.63 644.317 298.777 645.469 292.87 646.27 C 279.63 647.77 265.79 645.56 253.21 649.94 C 248.21 651.69 243.3 654.29 238.11 655.5 C 234.663 656.225 231.177 656.756 227.67 657.09 L 203.86 659.81 C 199.018 660.458 194.144 660.832 189.26 660.93 C 178.86 660.93 168.63 658.47 158.53 656.01 C 157.456 655.822 156.434 655.409 155.53 654.8 C 153.93 653.54 153.58 651.31 153.35 649.29 Q 151.82 635.88 150.67 622.44 C 150.43 619.53 150.25 616.38 151.84 613.93 C 153.84 610.93 157.74 609.99 161.3 609.41 C 176.396 606.94 191.688 605.879 206.98 606.24 C 212.79 600.43 222.37 600.4 229.98 597.24 C 232.78 595.954 235.489 594.481 238.09 592.83 C 251.703 584.888 266.915 580.081 282.62 578.76 C 285.696 578.666 288.751 578.23 291.73 577.46 C 297.62 575.63 302.99 570.65 309.04 571.87 C 309.79 569.8 310.31 567.03 312.04 565.61 C 312.9 564.88 313.96 564.39 314.75 563.61 C 316.42 561.92 316.57 559.26 316.32 556.9 C 316.07 554.54 315.51 552.12 316.12 549.82 C 316.374 548.949 316.747 548.118 317.23 547.35 C 320.23 542.17 324.76 539.51 330.79 540.01 Z " fill="rgb(70,67,83)"/><g opacity="0.1"><path d=" M 64.86 606.28 C 59.762 611.148 55.339 616.677 51.71 622.72 C 45.886 632.693 42.227 643.78 40.97 655.26 C 40.493 659.448 40.457 663.674 40.86 667.87 C 38.067 667.101 35.543 665.57 33.57 663.45 C 31.21 660.78 30.08 657.24 29.43 653.74 C 26.14 635.8 35.16 616.26 50.95 607.13 C 53.01 605.799 55.352 604.967 57.79 604.7 C 60.181 604.69 62.544 605.209 64.71 606.22 L 64.86 606.28 Z " fill="rgb(0,0,0)"/></g><g opacity="0.1"><path d=" M 449.32 680.76 C 445.96 686.99 439.44 690.87 432.44 692.47 C 435.163 687.18 436.39 681.246 435.99 675.31 C 435.39 665.8 431.21 656.84 425.88 648.94 C 422.601 644.077 418.871 639.534 414.74 635.37 C 411.56 632.17 407.65 629.63 404.23 626.7 C 406.93 625.294 409.805 624.255 412.78 623.61 C 422.39 621.96 431.3 628.61 438.55 635.1 C 441.039 637.166 443.241 639.553 445.1 642.2 C 447.1 645.32 448.16 648.95 449.1 652.53 C 451.71 661.84 453.9 672.26 449.32 680.76 Z " fill="rgb(0,0,0)"/></g><circle vector-effect="non-scaling-stroke" cx="228.57" cy="479.66" r="6" fill="rgb(255,255,255)"/><g><path d=" M 125.02 649.54 C 122.91 644.74 120.91 639.22 123.02 634.42 C 124.397 631.593 126.763 629.369 129.67 628.17 C 132.546 626.997 135.578 626.249 138.67 625.95 C 148.374 624.677 158.194 624.543 167.93 625.55 C 168.64 631.17 167.14 636.87 165.85 642.3 C 164.68 647.3 164.01 648.04 158.85 648.3 C 155.51 648.48 125.81 651.31 125.02 649.54 Z " fill="rgb(251,190,190)"/><g opacity="0.1"><ellipse vector-effect="non-scaling-stroke" cx="214.07" cy="577.16" rx="143" ry="40" fill="rgb(0,0,0)"/></g><path d=" M 239.71 366 C 234.808 375.472 226.667 382.867 216.77 386.84 C 210.927 388.969 204.777 390.138 198.56 390.3 C 191.77 390.61 184.84 390.17 178.46 387.85 C 169.9 384.75 162.79 378.41 157.46 371.02 C 152.13 363.63 148.46 355.19 145.27 346.68 C 143.59 342.25 141.99 337.53 142.78 332.85 C 147.93 331.68 153.57 329.96 156.23 325.39 C 158.5 321.47 157.87 316.77 156.56 312.29 C 156.19 311.02 155.76 309.76 155.33 308.55 C 154.33 305.65 150.88 300.14 153.33 297.66 C 154.86 296.09 161.27 295.29 163.48 294.27 C 170.29 291.13 176.57 286.59 184.05 285.1 C 190.52 283.81 197.2 285.02 203.66 286.36 C 204.517 286.485 205.34 286.78 206.08 287.23 C 206.924 287.941 207.548 288.878 207.88 289.93 C 209.72 294.41 210.8 299.36 212.28 304.03 C 213.82 308.92 215.8 313.51 219.51 316.98 C 222.4 319.69 226.08 321.39 229.68 323.04 L 238.54 327.1 C 240.116 327.69 241.545 328.615 242.73 329.81 C 243.889 331.403 244.581 333.286 244.73 335.25 C 246.318 345.773 244.562 356.528 239.71 366 Z " fill="rgb(251,190,190)"/><circle vector-effect="non-scaling-stroke" cx="179.07" cy="270.16" r="46" fill="rgb(251,190,190)"/><path d=" M 319.22 419.45 L 315.44 396.55 C 313.53 385.06 311.56 373.35 306.22 363 C 302.71 356.22 297.14 349.76 289.63 348.42 C 288.151 348.288 286.697 347.952 285.31 347.42 C 283.11 346.36 281.91 343.98 280.22 342.22 C 275.86 337.7 268.76 337.63 262.92 335.33 C 257.76 333.33 253.54 329.48 248.84 326.54 C 244.14 323.6 238.29 321.54 233.09 323.42 C 232.25 332.37 231.36 341.52 227.56 349.67 C 222.551 360.416 212.956 368.324 201.452 371.189 C 189.947 374.055 177.764 371.571 168.3 364.43 C 159.39 357.72 153.68 347.37 151.02 336.54 C 150.37 333.9 149.63 330.87 147.2 329.66 C 144.57 328.34 141.41 329.94 139.2 331.88 C 135.2 335.47 131.93 340.61 126.67 341.82 C 124.77 342.26 122.67 342.17 121.09 343.32 C 120.04 344.289 119.161 345.428 118.49 346.69 C 116.152 349.994 112.305 351.897 108.26 351.75 C 106.43 351.66 104.26 351.24 103.01 352.57 C 102.08 353.57 102.01 355.13 101.01 356.06 C 99.66 357.37 97.47 356.73 95.59 356.66 C 92.03 356.51 88.72 358.79 86.68 361.66 C 84.64 364.53 83.68 368.08 82.68 371.52 C 93.61 395.86 103.61 420.23 114.54 444.57 C 115.052 445.487 115.324 446.519 115.33 447.57 C 115.111 448.66 114.646 449.686 113.97 450.57 C 108.61 459.18 108.78 470.01 109.37 480.13 C 109.96 490.25 110.68 500.94 106.16 510.01 C 104.93 512.5 103.33 514.78 102.16 517.27 C 99.42 522.91 98.43 540.95 100.03 547.01 L 326.11 547.01 C 321.8 535.16 323.44 511.38 324.34 498.8 C 324.97 490 323.34 481.21 322.64 472.41 C 321.11 454.44 322.19 437.39 319.22 419.45 Z " fill="rgb(116,116,116)"/><path d=" M 65.36 445.65 C 64.96 448.544 64.92 451.476 65.24 454.38 L 68.11 495.65 C 68.38 499.54 68.65 503.42 69.01 507.3 C 69.7 514.83 70.73 522.3 72.01 529.76 C 72.07 531.965 73.904 533.706 76.11 533.65 C 88.76 536.33 101.83 536.22 114.74 535.49 C 134.44 534.39 154.11 531.88 173.84 532.31 C 178.92 532.42 184.84 532.31 187.92 528.31 C 191 524.31 189.21 517.84 185.19 514.61 C 181.17 511.38 175.71 510.61 170.55 510.61 C 163.72 510.54 156.89 511.51 150.08 511.11 C 143.83 510.74 137.72 509.23 131.66 507.72 L 114.66 503.49 C 115.31 498.34 117.27 493.49 119.13 488.6 C 122.47 479.93 125.59 470.97 125.65 461.68 C 125.71 452.39 122.21 442.62 114.6 437.3 C 108.34 432.93 100.28 432.12 92.65 432.3 C 87.1 432.46 77.51 431.13 72.44 433.3 C 68.43 435.06 66.11 441.72 65.36 445.65 Z " fill="rgb(251,190,190)"/><g opacity="0.05"><path d=" M 330.79 540.01 C 334.12 538.74 337.79 539.2 341.36 539.68 C 352.85 541.25 364.51 542.86 375.16 547.45 C 380.16 549.59 384.92 552.45 388.3 556.66 C 391.3 560.45 393.05 565.09 394.71 569.66 L 398.55 580.18 C 400.01 584.18 401.49 588.26 401.9 592.51 C 403.1 605.1 394.49 616.97 383.66 623.51 C 372.83 630.05 360.08 632.38 347.66 634.82 C 335.24 637.26 322.77 639.96 310.4 642.82 C 304.63 644.317 298.777 645.469 292.87 646.27 C 279.63 647.77 265.79 645.56 253.21 649.94 C 248.21 651.69 243.3 654.29 238.11 655.5 C 234.663 656.225 231.177 656.756 227.67 657.09 L 203.86 659.81 C 199.018 660.458 194.144 660.832 189.26 660.93 C 178.86 660.93 168.63 658.47 158.53 656.01 C 157.456 655.822 156.434 655.409 155.53 654.8 C 153.93 653.54 153.58 651.31 153.35 649.29 Q 151.82 635.88 150.67 622.44 C 150.43 619.53 150.25 616.38 151.84 613.93 C 153.84 610.93 157.74 609.99 161.3 609.41 C 176.396 606.94 191.688 605.879 206.98 606.24 C 212.79 600.43 222.37 600.4 229.98 597.24 C 232.78 595.954 235.489 594.481 238.09 592.83 C 251.703 584.888 266.915 580.081 282.62 578.76 C 285.696 578.666 288.751 578.23 291.73 577.46 C 297.62 575.63 302.99 570.65 309.04 571.87 C 309.79 569.8 310.31 567.03 312.04 565.61 C 312.9 564.88 313.96 564.39 314.75 563.61 C 316.42 561.92 316.57 559.26 316.32 556.9 C 316.07 554.54 315.51 552.12 316.12 549.82 C 316.374 548.949 316.747 548.118 317.23 547.35 C 320.23 542.17 324.76 539.51 330.79 540.01 Z " fill="rgb(0,0,0)"/></g><path d=" M 134.22 655.72 C 128.03 662.89 122.58 665.45 112.89 665.22 Q 103.95 665.01 95.03 664.29 C 90.965 663.851 86.878 663.66 82.79 663.72 C 70.45 664.2 58.54 669.85 46.23 668.86 C 44.41 668.717 42.61 668.382 40.86 667.86 C 38.067 667.091 35.543 665.56 33.57 663.44 C 31.21 660.77 30.08 657.23 29.43 653.73 C 26.14 635.79 35.16 616.25 50.95 607.12 C 53.01 605.789 55.352 604.957 57.79 604.69 C 60.181 604.68 62.544 605.199 64.71 606.21 L 64.86 606.27 C 71.275 608.91 77.101 612.798 82 617.71 C 82.743 618.561 83.63 619.275 84.62 619.82 C 85.608 620.193 86.654 620.389 87.71 620.4 L 100.85 621.23 C 103.076 621.296 105.289 621.602 107.45 622.14 C 109.832 622.972 112.152 623.974 114.39 625.14 C 121.46 628.3 129.3 629.14 136.94 630.36 C 137.676 630.401 138.379 630.682 138.94 631.16 C 139.245 631.539 139.457 631.984 139.56 632.46 C 141.74 640.619 139.741 649.329 134.22 655.72 Z " fill="rgb(63,61,86)"/><path d=" M 319.35 631.16 C 326.7 630.96 334.95 630.59 340.35 635.54 C 345.5 640.22 346.18 647.94 346.52 654.89 L 346.91 662.96 C 347.03 665.42 347.13 667.96 346.14 670.24 C 344.38 674.24 339.55 676.17 335.14 675.94 C 330.73 675.71 326.68 673.78 322.65 672.04 C 311.709 667.327 300.317 663.738 288.65 661.33 Q 289.22 652.96 290.55 644.67 C 291.16 640.84 291.26 634.43 293.82 631.25 C 296.53 627.89 300.06 629.71 303.74 630.33 C 308.904 631.118 314.132 631.396 319.35 631.16 L 319.35 631.16 Z " fill="rgb(251,190,190)"/><path d=" M 125.11 550.07 C 125.11 551.07 123.54 550.07 123.4 549 C 122.3 540.91 115.88 534.24 108.4 531 C 100.92 527.76 92.4 527.59 84.3 528.36 C 72.05 529.52 58.3 534.21 53.82 545.66 C 52.76 548.34 52.28 551.24 50.98 553.81 C 49.54 556.63 47.19 558.88 45.63 561.62 C 42.94 566.36 42.83 572.17 43.8 577.53 C 46.41 591.83 56.19 604.06 68.04 612.53 C 79.89 621 93.74 626.06 107.55 630.62 C 144.067 642.663 181.532 651.612 219.55 657.37 C 225.71 658.3 231.93 659.16 237.83 661.14 C 243.11 662.91 248.05 665.56 253.21 667.64 C 265.21 672.46 278.12 674.18 290.91 675.87 C 293.09 676.15 295.59 676.35 297.2 674.87 C 299.28 672.94 298.59 669.58 298 666.81 C 295.829 656.278 297.65 645.315 303.11 636.05 C 305.25 632.45 308.03 628.76 307.63 624.59 C 307.15 619.73 302.31 616.29 297.49 615.51 C 292.67 614.73 287.77 615.88 282.93 616.51 C 281.26 616.73 279.44 616.87 277.98 616.02 C 277.261 615.534 276.608 614.956 276.04 614.3 C 269.2 607.701 258.887 606.26 250.5 610.73 C 248.71 611.73 246 609.5 244.14 608.66 L 223.11 599.14 C 198.95 588.21 174.67 577.23 149.11 570.31 C 147.071 569.909 145.132 569.103 143.41 567.94 C 142.14 566.94 141.23 565.58 140.06 564.47 C 137.51 562.06 133.96 561.1 130.9 559.39 C 127.84 557.68 124.41 553.5 125.11 550.07 Z " fill="rgb(70,67,83)"/><path d=" M 449.32 680.76 C 445.96 686.99 439.44 690.87 432.44 692.47 C 430.683 692.866 428.898 693.121 427.1 693.23 C 418.25 693.78 409.51 691.33 400.98 688.91 L 389.4 685.65 C 387.409 685.023 385.368 684.568 383.3 684.29 C 380.484 684.102 377.656 684.199 374.86 684.58 C 361.174 685.853 347.377 685.234 333.86 682.74 C 332.729 682.618 331.643 682.231 330.69 681.61 C 329.855 680.791 329.114 679.883 328.48 678.9 C 325.33 675.11 321.94 672.9 325.67 667.9 C 327.82 665 331.81 663.55 333.48 660.22 C 335.15 656.89 334.08 652.16 333.09 648.72 C 331.74 643.97 327.3 641.92 325.71 637.56 C 324.52 634.27 326.52 630.45 329.53 628.66 C 332.54 626.87 336.26 626.73 339.73 627.19 C 343.2 627.65 346.6 628.63 350.09 628.9 C 360.35 629.72 370.84 624.43 380.69 627.41 C 382.86 628.07 384.91 629.12 387.11 629.7 C 391.399 630.659 395.88 630.272 399.94 628.59 C 401.38 628.05 402.79 627.4 404.19 626.76 C 406.89 625.354 409.765 624.315 412.74 623.67 C 422.35 622.02 431.26 628.67 438.51 635.16 C 440.999 637.226 443.201 639.613 445.06 642.26 C 447.06 645.38 448.12 649.01 449.06 652.59 C 451.71 661.84 453.9 672.26 449.32 680.76 Z " fill="rgb(63,61,86)"/><path d=" M 82.11 372.26 C 81.136 373.28 80.38 374.488 79.89 375.81 C 71.807 394.027 67.032 413.539 65.79 433.43 C 65.812 434.4 65.588 435.36 65.14 436.22 C 64.698 436.793 64.206 437.325 63.67 437.81 C 62.686 438.976 62.229 440.498 62.407 442.014 C 62.585 443.529 63.382 444.903 64.61 445.81 C 66.26 442.7 70.21 441.69 73.72 441.42 C 90.53 440.09 106.95 447.91 123.81 447.32 C 122.62 443.21 120.91 439.26 119.94 435.1 C 115.65 416.63 126.35 396.52 119.79 378.73 C 118.48 375.17 116.29 371.67 112.84 370.11 C 111.412 369.533 109.917 369.137 108.39 368.93 C 104.13 368.16 95.65 364.87 91.53 366.19 C 90.01 366.68 89.41 368.11 88.15 368.97 C 86.24 370.2 83.7 370.65 82.11 372.26 Z " fill="rgb(116,116,116)"/><path d="M 125.54 408.66 L 332.6 408.66 C 336.999 408.66 340.57 412.231 340.57 416.63 L 340.57 542.69 C 340.57 547.089 336.999 550.66 332.6 550.66 L 125.54 550.66 C 121.141 550.66 117.57 547.089 117.57 542.69 L 117.57 416.63 C 117.57 412.231 121.141 408.66 125.54 408.66 Z" style="stroke:none;fill:#3F3D56;stroke-miterlimit:10;"/><path d=" M 147.29 195.5 C 143.93 197.93 141.63 201.42 139.29 204.77 C 134.98 210.96 130.1 217.14 123.21 220.59 C 120.6 221.9 117.62 222.89 115.89 225.17 C 114.863 226.712 114.197 228.465 113.94 230.3 C 112.62 236.751 111.93 243.315 111.88 249.9 C 111.88 253.18 112.02 256.56 113.47 259.54 C 114.84 262.34 117.31 264.71 117.82 267.76 C 118.21 270.14 117.33 272.51 117.02 274.9 C 116.71 277.29 117.25 280.12 119.46 281.26 C 120.651 281.708 121.894 282 123.16 282.13 C 129.81 283.61 132.04 291.41 133.05 297.86 C 135.31 297.73 136.33 295.14 136.8 293.03 L 143.73 262.22 C 144.48 258.88 145.73 255.01 149.06 253.84 C 151.29 253.07 153.73 253.79 156.06 253.99 C 165.21 254.74 172.95 247.67 181.9 245.72 C 184.765 245.142 187.694 244.947 190.61 245.14 C 197.67 245.49 205.88 248.39 207.38 254.98 C 207.63 256.05 207.78 257.33 208.78 257.86 C 209.78 258.39 210.83 257.94 211.88 257.86 C 216.36 257.41 219 262.45 220.29 266.57 L 224.99 281.57 C 225.69 283.84 226.87 286.51 229.33 286.8 C 231.6 287.08 233.53 284.93 233.87 282.8 C 234.21 280.67 233.47 278.46 232.98 276.32 C 230.77 266.47 234.15 256.39 236.21 246.52 C 238.27 236.65 238.64 225.31 231.73 217.71 C 229.22 214.96 225.92 212.91 223.58 210.01 C 221.4 207.29 220.17 203.95 217.91 201.28 C 211.66 193.91 195.63 188.22 185.8 187.28 C 174.57 186.06 156.37 188.91 147.29 195.5 Z " fill="rgb(46,46,46)"/></g><g style="opacity:0.1;"><g opacity="0.1"><path d=" M 229.37 279.8 C 226.91 279.5 225.73 276.8 225.03 274.57 Q 222.68 267.06 220.33 259.57 C 219.04 255.44 216.4 250.4 211.92 250.86 C 210.87 250.97 209.74 251.38 208.82 250.86 C 207.9 250.34 207.67 249.05 207.42 247.98 C 205.92 241.38 197.71 238.49 190.65 238.14 C 187.734 237.949 184.806 238.14 181.94 238.71 C 172.99 240.71 165.25 247.71 156.1 246.98 C 153.74 246.79 151.3 246.07 149.1 246.84 C 145.73 248 144.52 251.84 143.77 255.22 L 136.84 286.02 C 136.37 288.14 135.35 290.73 133.09 290.85 C 132.09 284.41 129.85 276.61 123.2 275.13 C 121.936 274.991 120.694 274.699 119.5 274.26 C 118.63 273.785 117.949 273.026 117.57 272.11 C 117.39 273.04 117.18 273.97 117.06 274.9 C 116.76 277.28 117.29 280.12 119.5 281.26 C 120.691 281.708 121.934 282 123.2 282.13 C 129.85 283.61 132.08 291.41 133.09 297.86 C 135.35 297.73 136.37 295.14 136.84 293.03 L 143.77 262.22 C 144.52 258.88 145.77 255.01 149.1 253.84 C 151.33 253.07 153.77 253.79 156.1 253.99 C 165.25 254.74 172.99 247.67 181.94 245.72 C 184.805 245.142 187.734 244.947 190.65 245.14 C 197.71 245.49 205.92 248.39 207.42 254.98 C 207.67 256.05 207.82 257.33 208.82 257.86 C 209.82 258.39 210.87 257.94 211.92 257.86 C 216.4 257.41 219.04 262.45 220.33 266.57 Q 222.67 274.08 225.03 281.57 C 225.73 283.84 226.91 286.51 229.37 286.8 C 231.64 287.08 233.57 284.93 233.91 282.8 C 234.064 281.008 233.86 279.203 233.31 277.49 C 232.581 278.982 231.028 279.892 229.37 279.8 L 229.37 279.8 Z " fill="rgb(0,0,0)"/></g><g opacity="0.1"><path d=" M 117.83 260.76 C 117.32 257.71 114.83 255.34 113.48 252.54 C 112.612 250.651 112.11 248.616 112 246.54 C 112 247.66 111.9 248.78 111.89 249.91 C 111.89 253.19 112.03 256.57 113.48 259.55 C 114.59 261.82 116.42 263.82 117.34 266.13 C 117.825 264.384 117.991 262.565 117.83 260.76 Z " fill="rgb(0,0,0)"/></g><g opacity="0.1"><path d=" M 236.25 239.48 C 234.43 248.2 231.59 257.08 232.47 265.82 C 233.04 259.37 234.92 252.88 236.25 246.48 C 237.359 241.62 237.75 236.623 237.41 231.65 C 237.193 234.282 236.805 236.898 236.25 239.48 Z " fill="rgb(0,0,0)"/></g></g></g></svg>